. 
  
http://www.torrenting.com/        :     Greatest Movie Tracker on The Net!!!
 
http://www.Torrenting.com          :     Once & For all ;)


               www . Torrenting . Com 

(((((((((((((= Enjoy No RAR releases =))))))))))))))))))))


...................................NFO:....................................

.[img]http://img96.imageshack.us/img96/5999/1300723652animentritonf.jpg[/img]

[color=blue][size=5][b]The.Eagle.2011.R5.DVDRip.XVID.AC3-5.1.HQ.Hive-CM8[/b][/size][/color]


[b]Thx Hive

CM8 Doing It Right The First Time :D

Sources:

Video: Russian R5 DVD-9
Orel.Devjatogo.legiona.2011.D.DVD.ELEKTRI4KA

Audio: Imagines Line + Russian Surround

Subs: mostly Imagines subs hardcoded

VideoEncode: 

added brightness,sharpness,rgb,denoise

AudioEncode:

cleaned the line best i could, cleaned the russian sourround channels from russian voice and entered the line into the russian 5.1 track.
imagines line has too much loud bass in the war scenes, cant change that.
extracted russian subs for the perfect timing and replaced the words mostly with imagines subs and hardcoded them within

Video: 720x304 @bitrate 1800 2pass
Audio: English 5.1 @448
Sample: yes included
Subs: yes english hardcoded for foreign parts only[/b]


[url]http://www.imdb.com/title/tt1034389/[/url]

General
Complete name                    : The.Eagle.2011.R5.DVDRip.XVID.AC3-5.1.HQ.Hive-CM8.avi
Format                           : AVI
Format/Info                      : Audio Video Interleave
File size                        : 1.73 GiB
Duration                         : 1h 49mn
Overall bit rate                 : 2 257 Kbps
Writing application              : Nandub v1.0rc2
Writing library                  : Nandub build 1853/release

Video
ID                               : 0
Format                           : MPEG-4 Visual
Format profile                   : Advanced Simple@L5
Format settings, BVOP            : Yes
Format settings, QPel            : Yes
Format settings, GMC             : No warppoints
Format settings, Matrix          : Default (H.263)
Muxing mode                      : Packed bitstream
Codec ID                         : XVID
Codec ID/Hint                    : XviD
Duration                         : 1h 49mn
Bit rate                         : 1 800 Kbps
Width                            : 720 pixels
Height                           : 304 pixels
Display aspect ratio             : 2.35:1
Frame rate                       : 25.000 fps
Color space                      : YUV
Chroma subsampling               : 4:2:0
Bit depth                        : 8 bits
Scan type                        : Progressive
Bits/(Pixel*Frame)               : 0.329
Stream size                      : 1.38 GiB (80%)
Writing library                  : XviD 1.2.1 (UTC 2008-12-04)

Audio
ID                               : 1
Format                           : AC-3
Format/Info                      : Audio Coding 3
Mode extension                   : CM (complete main)
Codec ID                         : 2000
Duration                         : 1h 49mn
Bit rate mode                    : Constant
Bit rate                         : 448 Kbps
Channel(s)                       : 6 channels
Channel positions                : Front: L C R, Side: L R, LFE
Sampling rate                    : 48.0 KHz
Bit depth                        : 16 bits
Stream size                      : 351 MiB (20%)
Alignment                        : Split accross interleaves
Interleave, duration             : 40 ms (1.00 video frame)
Interleave, preload duration     : 500 ms



Channing Tatum	 ... 	Marcus Aquila
Istvan Goz	... 	Cohort Centurion
Bence Gero	... 	Celt Boy / Young Marcus
Denis O'Hare	... 	Lutorius
Paul Ritter	... 	Galba


In Roman-ruled Britain, a young Roman soldier endeavors to honor 
his father's memory by finding his lost legion's golden emblem. 

 
[img]http://img703.imageshack.us/img703/4351/91072595.png[/img]
[img]http://img600.imageshack.us/img600/3161/anant.png[/img]
[img]http://img402.imageshack.us/img402/5277/ananan.png[/img]
[img]http://img28.imageshack.us/img28/4044/anananan.png[/img]
[img]http://img24.imageshack.us/img24/3241/ananananan.png[/img]
[img]http://img716.imageshack.us/img716/4049/anananananan.png[/img]
[img]http://img856.imageshack.us/img856/8843/ananananananan.png[/img]
[img]http://img59.imageshack.us/img59/2963/anananananananan.png[/img]
[img]http://img577.imageshack.us/img577/9642/ananananananananan.png[/img]





Greetz

ViSiON,LUSi,SANTi,MAGNET,THC,T0XiCiNK,LKRG,IMAGiNE,WBZ,FLAWL3SS,NOVA
Vik,Rapeseed,D2U,SAFC,goldadvance,MEMORY100,KaN1vE,Unevano,Pinnz,Wayne,Mr Hive
and all P2P groups 
Great Work Guys :D

CM8@hushmail.com